# xmcd
#
# Track frame offsets:
#	150
#	12760
#	24492
#	38130
#	51665
#	64340
#	74860
#	90160
#	104537
#	120700
#	137867
#	151462
#	163357
#	174977
#	187155
#	202707
#	215262
#	228725
#	244100
#
# Disc length: 3411 seconds
#
# Revision: 0
# Processed by: cddbd v1.5.2PL0 Copyright (c) Steve Scherf et al.
# Submitted via: EasyCDDAExtractor 15.3.0.1
#
DISCID=170d5113
DTITLE=Reader's Digest Music - Don't Rock The Jukebox  [Country's All-Time Fav
DTITLE=orites]  [Disc 3 of 4]
DYEAR=2010
DGENRE=Country
TTITLE0=Charlie Rich - Behind Closed Doors
TTITLE1=Freddy Fender - Before The Next Teardrop Falls
TTITLE2=Glen Campbell - Rhinestone Cowboy
TTITLE3=Mickey Gilley - Room Full Of Roses
TTITLE4=Willie Nelson - Half A Man
TTITLE5=Faron Young - Hello Walls
TTITLE6=Ed Bruce - Mamas Don't Let Your Babies Grow Up To Be Cowboys
TTITLE7=Lee Greenwood - I.O.U.
TTITLE8=Sammy Kershaw - I Got A Name
TTITLE9=Ray Price - For The Good Times
TTITLE10=Patti Page - The Tennessee Waltz
TTITLE11=Patsy Cline - Walkin' After Midnight
TTITLE12=Brenda Lee - Break It To Me Gently
TTITLE13=Donna Fargo - Funny Face
TTITLE14=Melba Montgomery - No Charge
TTITLE15=Lynn Anderson - Listen To A Country Song
TTITLE16=Lacy J. Dalton - Dream Baby  (How Long Must I Dream)
TTITLE17=Billie Jo Spears - Blanket On The Ground
TTITLE18=Holly Dunn - That's What Your Love Does To Me
EXTD=
EXTT0=
EXTT1=
EXTT2=
EXTT3=
EXTT4=
EXTT5=
EXTT6=
EXTT7=
EXTT8=
EXTT9=
EXTT10=
EXTT11=
EXTT12=
EXTT13=
EXTT14=
EXTT15=
EXTT16=
EXTT17=
EXTT18=
PLAYORDER=
